<svg xmlns="http://www.w3.org/2000/svg" xmlns:xlink="http://www.w3.org/1999/xlink" width="500" zoomAndPan="magnify" viewBox="0 0 375 374.999991" height="500" preserveAspectRatio="xMidYMid meet" version="1.0"><defs><g/><clipPath id="822a5f46dd"><path d="M 74.378906 95.875 L 261.878906 95.875 L 261.878906 283.375 L 74.378906 283.375 Z M 74.378906 95.875 " clip-rule="nonzero"/></clipPath><clipPath id="518ebfaba4"><path d="M 74.378906 91.675781 L 261.878906 91.675781 L 261.878906 279.175781 L 74.378906 279.175781 Z M 74.378906 91.675781 " clip-rule="nonzero"/></clipPath><clipPath id="772f1e7574"><path d="M 210 179.109375 L 290.160156 179.109375 L 290.160156 195.609375 L 210 195.609375 Z M 210 179.109375 " clip-rule="nonzero"/></clipPath></defs><g clip-path="url(#822a5f46dd)"><path fill="#514343" d="M 168.128906 283.375 C 116.449219 283.375 74.378906 241.300781 74.378906 189.625 C 74.378906 137.945312 116.449219 95.875 168.128906 95.875 C 219.804688 95.875 261.878906 137.945312 261.878906 189.625 C 261.878906 241.300781 219.804688 283.375 168.128906 283.375 Z M 168.128906 97.261719 C 117.191406 97.261719 75.765625 138.683594 75.765625 189.625 C 75.765625 240.5625 117.191406 281.988281 168.128906 281.988281 C 219.066406 281.988281 260.492188 240.5625 260.492188 189.625 C 260.492188 138.683594 219.066406 97.261719 168.128906 97.261719 Z M 168.128906 97.261719 " fill-opacity="1" fill-rule="nonzero"/></g><g clip-path="url(#518ebfaba4)"><path fill="#514343" d="M 168.128906 279.175781 C 116.449219 279.175781 74.378906 237.105469 74.378906 185.425781 C 74.378906 133.75 116.449219 91.675781 168.128906 91.675781 C 219.804688 91.675781 261.878906 133.75 261.878906 185.425781 C 261.878906 237.105469 219.804688 279.175781 168.128906 279.175781 Z M 168.128906 93.0625 C 117.191406 93.0625 75.765625 134.488281 75.765625 185.425781 C 75.765625 236.367188 117.191406 277.792969 168.128906 277.792969 C 219.066406 277.792969 260.492188 236.367188 260.492188 185.425781 C 260.492188 134.488281 219.066406 93.0625 168.128906 93.0625 Z M 168.128906 93.0625 " fill-opacity="1" fill-rule="nonzero"/></g><g fill="#514343" fill-opacity="1"><g transform="translate(87.954692, 197.387154)"><g><path d="M 69.398438 -64.199219 C 69.21875 -64.109375 69.039062 -63.929688 68.859375 -63.839844 C 68.59375 -63.839844 68.324219 -63.839844 68.054688 -63.839844 C 67.246094 -62.765625 66.082031 -62.136719 65.453125 -60.878906 C 65.183594 -60.253906 64.648438 -59.894531 64.289062 -59.265625 C 63.929688 -58.640625 63.210938 -58.191406 62.941406 -57.472656 C 62.765625 -57.023438 62.046875 -56.847656 61.867188 -56.21875 C 61.6875 -55.589844 61.148438 -55.230469 60.703125 -54.875 C 60.253906 -54.425781 60.253906 -53.886719 59.894531 -53.527344 C 59.445312 -53.167969 59.175781 -52.8125 58.820312 -52.453125 C 58.371094 -52.09375 58.011719 -51.644531 57.652344 -51.285156 C 57.292969 -50.929688 57.113281 -50.480469 56.847656 -50.121094 C 56.308594 -49.492188 55.589844 -48.957031 55.054688 -48.328125 C 54.515625 -47.609375 53.617188 -47.253906 53.4375 -46.265625 C 52.8125 -45.636719 52.183594 -45.011719 51.644531 -44.472656 C 51.019531 -43.84375 50.300781 -43.128906 49.671875 -42.5 C 49.226562 -42.050781 48.777344 -41.691406 48.417969 -41.335938 C 48.328125 -40.976562 48.328125 -40.886719 48.328125 -40.707031 C 47.878906 -40.257812 47.429688 -39.808594 46.984375 -39.363281 C 46.535156 -38.914062 45.996094 -38.375 45.546875 -37.925781 C 45.101562 -37.480469 44.652344 -36.941406 44.113281 -36.582031 C 43.574219 -36.132812 43.398438 -35.417969 42.949219 -34.96875 C 42.410156 -34.339844 41.78125 -33.804688 41.15625 -33.175781 C 40.617188 -32.546875 39.988281 -32.007812 39.363281 -31.382812 C 38.824219 -30.753906 38.015625 -30.304688 37.660156 -29.589844 C 37.210938 -28.871094 36.671875 -28.242188 36.132812 -27.707031 C 34.878906 -26.449219 33.625 -25.195312 32.367188 -23.941406 C 32.367188 -23.851562 32.367188 -23.671875 32.277344 -23.402344 C 32.007812 -23.042969 31.5625 -22.683594 31.203125 -22.324219 C 30.753906 -21.96875 30.394531 -21.519531 29.949219 -21.160156 C 29.5 -20.710938 29.050781 -20.265625 28.601562 -19.816406 C 28.242188 -19.367188 27.886719 -18.917969 27.4375 -18.648438 C 26.898438 -18.292969 26.988281 -17.664062 26.539062 -17.304688 C 26.179688 -17.035156 25.734375 -16.765625 25.285156 -16.496094 C 21.519531 -16.496094 17.753906 -16.496094 13.988281 -16.496094 C 13.808594 -16.410156 13.628906 -16.230469 13.449219 -16.140625 C 12.195312 -16.140625 10.9375 -16.140625 9.683594 -16.140625 C 9.59375 -15.960938 9.414062 -15.78125 9.234375 -15.691406 C 8.695312 -15.691406 8.160156 -15.691406 7.53125 -15.691406 C 7.351562 -15.0625 6.8125 -15.332031 6.457031 -15.242188 C 6.007812 -15.0625 5.648438 -14.792969 5.289062 -14.613281 C 6.007812 -14.347656 5.46875 -13.539062 5.917969 -13.179688 C 6.636719 -13.179688 7.351562 -13.179688 7.980469 -13.179688 C 8.429688 -12.554688 9.59375 -12.820312 9.503906 -11.65625 C 10.132812 -11.296875 10.3125 -10.492188 10.757812 -9.953125 C 10.757812 -8.785156 10.757812 -7.621094 10.757812 -6.546875 C 10.582031 -6.457031 10.492188 -6.367188 10.3125 -6.1875 C 10.3125 -5.738281 10.3125 -5.289062 10.3125 -4.929688 C 10.132812 -4.664062 10.042969 -4.574219 9.953125 -4.394531 C 9.953125 -4.035156 9.953125 -3.675781 9.953125 -3.226562 C 9.773438 -3.136719 9.683594 -2.957031 9.503906 -2.78125 C 9.503906 -2.511719 9.59375 -2.152344 9.503906 -1.972656 C 9.144531 -1.703125 9.144531 -1.253906 8.964844 -0.984375 C 8.695312 -0.539062 8.429688 -0.179688 8.25 0.269531 C 8.160156 0.628906 8.160156 0.984375 7.890625 1.34375 C 7.53125 1.972656 7.261719 2.601562 6.992188 3.316406 C 6.636719 3.945312 6.457031 4.664062 5.828125 5.109375 C 5.738281 5.199219 5.738281 5.199219 5.648438 5.378906 C 5.648438 5.558594 5.648438 5.828125 5.648438 6.097656 C 5.378906 6.367188 5.109375 6.636719 4.839844 6.902344 C 4.839844 7.171875 4.839844 7.441406 4.839844 7.710938 C 4.753906 7.890625 4.574219 7.980469 4.484375 8.160156 C 4.484375 8.609375 4.484375 8.964844 4.484375 9.503906 C 5.109375 9.953125 5.738281 10.402344 6.457031 10.9375 C 6.726562 10.9375 7.171875 10.9375 7.621094 10.9375 C 7.800781 10.757812 7.890625 10.582031 8.070312 10.492188 C 8.339844 10.492188 8.609375 10.492188 8.875 10.492188 C 9.324219 10.042969 9.59375 9.683594 10.222656 9.503906 C 10.757812 9.414062 10.667969 8.609375 11.117188 8.25 C 11.925781 7.621094 12.195312 6.726562 12.640625 5.917969 C 12.820312 5.46875 13 4.929688 13.359375 4.484375 C 13.628906 4.035156 13.628906 3.496094 13.808594 3.046875 C 14.078125 2.601562 14.257812 2.0625 14.523438 1.613281 C 14.613281 1.523438 14.613281 1.253906 14.613281 0.984375 C 14.703125 0.898438 14.882812 0.71875 14.972656 0.539062 C 14.972656 0.269531 14.972656 0 14.972656 -0.269531 C 15.332031 -0.539062 15.691406 -0.808594 15.78125 -1.164062 C 15.871094 -1.613281 16.050781 -1.882812 16.320312 -2.0625 C 16.675781 -2.242188 16.585938 -2.691406 16.765625 -2.871094 C 17.125 -3.316406 17.574219 -3.585938 17.84375 -3.945312 C 18.023438 -4.484375 18.292969 -4.929688 18.738281 -5.289062 C 19.1875 -5.558594 19.097656 -6.097656 19.457031 -6.457031 C 19.816406 -6.8125 20.351562 -7.082031 20.441406 -7.53125 C 20.53125 -7.980469 20.890625 -8.25 21.160156 -8.519531 C 21.519531 -8.875 21.609375 -9.234375 21.878906 -9.683594 C 22.324219 -10.222656 22.863281 -10.667969 23.402344 -11.207031 C 23.492188 -12.015625 24.207031 -12.375 24.746094 -12.910156 C 24.835938 -13 24.925781 -13.089844 25.015625 -13.089844 C 25.464844 -13.089844 25.824219 -13.089844 26.179688 -13.089844 C 26.449219 -12.910156 26.628906 -12.820312 26.71875 -12.730469 C 27.527344 -12.730469 28.332031 -12.730469 29.140625 -12.730469 C 29.230469 -12.640625 29.410156 -12.464844 29.589844 -12.285156 C 29.949219 -12.285156 30.394531 -12.285156 30.84375 -12.285156 C 31.023438 -11.925781 31.472656 -11.925781 31.832031 -11.746094 C 31.832031 -11.566406 31.832031 -11.476562 31.917969 -11.296875 C 32.007812 -11.117188 32.097656 -10.9375 32.277344 -10.847656 C 33.085938 -10.492188 33.804688 -10.042969 34.609375 -9.683594 C 34.878906 -10.042969 35.148438 -10.402344 35.417969 -10.582031 C 35.773438 -10.582031 36.042969 -10.582031 36.3125 -10.582031 C 36.671875 -10.9375 37.03125 -11.296875 37.390625 -11.65625 C 37.390625 -12.375 37.390625 -13.089844 37.390625 -13.808594 C 37.03125 -14.078125 36.492188 -14.078125 36.222656 -14.523438 C 35.953125 -14.972656 35.328125 -14.792969 35.058594 -15.242188 C 34.339844 -15.242188 33.625 -15.242188 32.996094 -15.242188 C 32.816406 -15.421875 32.636719 -15.511719 32.457031 -15.691406 C 31.832031 -15.691406 31.113281 -15.691406 30.394531 -15.691406 C 30.304688 -15.78125 30.214844 -15.960938 30.035156 -16.050781 C 29.320312 -16.050781 28.601562 -16.140625 27.796875 -16.140625 C 27.796875 -16.140625 27.707031 -16.230469 27.707031 -16.320312 C 27.617188 -17.035156 28.242188 -17.214844 28.601562 -17.664062 C 28.960938 -18.113281 29.5 -18.558594 29.949219 -19.007812 C 30.304688 -19.367188 30.664062 -19.726562 31.023438 -20.085938 C 31.113281 -20.351562 31.113281 -20.441406 31.113281 -20.621094 C 32.367188 -21.878906 33.625 -23.042969 34.878906 -24.296875 C 34.878906 -24.476562 34.878906 -24.566406 34.878906 -24.746094 C 35.507812 -25.464844 36.222656 -26.089844 36.941406 -26.808594 C 37.121094 -27.976562 38.195312 -28.421875 38.914062 -29.140625 C 39.542969 -29.949219 40.257812 -30.574219 40.976562 -31.292969 C 41.515625 -31.742188 41.960938 -32.277344 42.5 -32.726562 C 42.5 -32.90625 42.5 -33.085938 42.5 -33.175781 C 46.625 -37.300781 50.75 -41.425781 54.875 -45.546875 C 54.875 -45.636719 54.964844 -45.546875 55.054688 -45.546875 C 55.054688 -45.457031 55.140625 -45.28125 55.140625 -45.191406 C 54.964844 -44.742188 54.785156 -44.382812 54.515625 -44.023438 C 54.246094 -43.574219 53.796875 -43.308594 53.796875 -42.769531 C 53.347656 -42.589844 53.617188 -42.050781 53.167969 -41.78125 C 52.722656 -41.515625 52.632812 -41.066406 52.453125 -40.617188 C 50.929688 -37.660156 49.492188 -34.699219 47.96875 -31.742188 C 47.789062 -31.292969 47.609375 -30.933594 47.34375 -30.484375 C 47.164062 -30.035156 46.894531 -29.679688 46.714844 -29.320312 C 46.535156 -28.871094 46.445312 -28.332031 46.175781 -28.0625 C 45.816406 -27.707031 45.90625 -27.078125 45.457031 -26.898438 C 45.636719 -26.269531 44.921875 -26.089844 44.921875 -25.554688 C 44.921875 -25.195312 44.472656 -24.835938 44.203125 -24.386719 C 44.023438 -24.03125 44.292969 -23.402344 43.753906 -23.132812 C 43.753906 -22.59375 43.398438 -22.148438 43.128906 -21.699219 C 42.949219 -21.160156 42.769531 -20.710938 42.5 -20.265625 C 42.140625 -19.816406 41.960938 -19.367188 41.960938 -18.828125 C 41.601562 -18.558594 41.691406 -18.023438 41.425781 -17.753906 C 41.066406 -17.484375 41.066406 -17.035156 40.796875 -16.675781 C 40.617188 -16.410156 40.886719 -15.78125 40.347656 -15.421875 C 40.527344 -14.972656 39.988281 -14.792969 39.898438 -14.347656 C 39.808594 -13.898438 39.453125 -13.539062 39.453125 -13.089844 C 39.453125 -12.640625 39.09375 -12.285156 38.824219 -11.835938 C 38.644531 -11.476562 38.464844 -11.027344 38.285156 -10.667969 C 38.105469 -10.3125 37.835938 -10.042969 37.835938 -9.773438 C 37.925781 -9.144531 37.300781 -8.875 37.390625 -8.429688 C 37.570312 -7.890625 37.03125 -7.621094 36.941406 -7.171875 C 36.851562 -6.726562 36.582031 -6.277344 36.3125 -5.917969 C 35.953125 -5.558594 36.402344 -4.753906 35.6875 -4.484375 C 35.773438 -4.035156 35.773438 -3.496094 35.328125 -3.226562 C 35.417969 -2.601562 34.519531 -2.332031 34.878906 -1.703125 C 34.609375 -1.253906 34.519531 -0.808594 34.160156 -0.449219 C 33.804688 -0.0898438 34.25 0.628906 33.625 0.984375 C 33.535156 0.984375 33.625 1.253906 33.625 1.34375 C 33.625 1.523438 33.625 1.613281 33.625 1.792969 C 33.445312 1.972656 33.355469 2.0625 33.175781 2.242188 C 33.175781 2.691406 33.175781 3.136719 33.175781 3.496094 C 32.996094 3.675781 32.90625 3.855469 32.726562 3.945312 C 32.726562 4.214844 32.726562 4.574219 32.726562 4.753906 C 32.546875 4.929688 32.457031 5.109375 32.277344 5.289062 C 32.277344 5.648438 32.277344 6.097656 32.277344 6.367188 C 32.007812 6.992188 31.742188 7.441406 31.472656 7.980469 C 31.472656 8.25 31.472656 8.695312 31.472656 9.054688 C 31.292969 9.234375 31.203125 9.324219 31.023438 9.503906 C 31.023438 10.042969 31.023438 10.667969 31.023438 11.207031 C 30.84375 11.296875 30.753906 11.476562 30.664062 11.566406 C 30.664062 11.835938 30.664062 12.105469 30.664062 12.375 C 30.484375 12.554688 30.304688 12.640625 30.214844 12.820312 C 30.214844 13.359375 30.214844 13.988281 30.214844 14.523438 C 30.125 14.613281 29.949219 14.703125 29.859375 14.882812 C 29.859375 15.691406 29.859375 16.585938 29.859375 17.394531 C 30.214844 17.84375 30.574219 18.203125 30.84375 18.558594 C 32.097656 18.378906 33.085938 17.933594 33.625 16.765625 C 33.804688 16.410156 34.070312 16.140625 34.429688 15.691406 C 34.429688 15.511719 34.339844 15.152344 34.429688 14.972656 C 34.878906 14.613281 34.789062 13.898438 35.328125 13.628906 C 35.238281 13.089844 35.417969 12.730469 35.6875 12.285156 C 35.863281 11.835938 36.222656 11.386719 36.3125 10.9375 C 36.582031 10.3125 37.121094 9.773438 36.941406 9.054688 C 37.390625 8.695312 37.480469 8.25 37.390625 7.800781 C 37.835938 7.53125 37.746094 6.902344 38.105469 6.546875 C 38.195312 6.457031 38.195312 6.1875 38.285156 6.007812 C 38.375 5.378906 38.824219 4.929688 38.734375 4.304688 C 39.183594 3.945312 39.453125 3.40625 39.453125 2.957031 C 39.542969 2.421875 39.808594 2.0625 39.988281 1.613281 C 40.167969 1.164062 40.527344 0.71875 40.347656 0.0898438 C 40.796875 -0.0898438 40.707031 -0.628906 40.976562 -0.898438 C 41.246094 -1.164062 41.246094 -1.613281 41.515625 -1.972656 C 41.871094 -2.152344 41.515625 -2.691406 41.871094 -3.046875 C 42.140625 -3.40625 42.230469 -3.855469 42.5 -4.304688 C 42.679688 -4.753906 43.039062 -5.199219 42.949219 -5.828125 C 43.308594 -6.007812 43.308594 -6.457031 43.484375 -6.8125 C 43.753906 -7.171875 44.023438 -7.621094 44.113281 -7.980469 C 44.203125 -8.429688 44.113281 -8.875 44.5625 -9.144531 C 44.382812 -9.59375 44.921875 -9.773438 45.011719 -10.222656 C 45.101562 -10.582031 45.28125 -11.117188 45.636719 -11.386719 C 45.996094 -11.746094 45.726562 -12.195312 45.90625 -12.554688 C 46.085938 -13 46.535156 -13.359375 46.625 -13.71875 C 46.714844 -14.257812 47.164062 -14.613281 47.253906 -15.152344 C 47.789062 -15.421875 47.429688 -16.050781 47.699219 -16.496094 C 48.417969 -17.664062 48.867188 -18.917969 49.671875 -20.085938 C 49.582031 -20.710938 50.390625 -21.160156 50.03125 -21.878906 C 50.300781 -22.148438 50.660156 -22.414062 50.929688 -22.59375 C 51.019531 -23.042969 50.929688 -23.402344 51.109375 -23.671875 C 51.824219 -24.925781 52.363281 -26.269531 53.082031 -27.527344 C 53.707031 -28.78125 54.335938 -30.125 54.964844 -31.382812 C 55.054688 -31.472656 55.140625 -31.652344 55.140625 -31.742188 C 55.140625 -32.457031 55.589844 -32.996094 55.949219 -33.535156 C 56.128906 -33.804688 56.488281 -33.980469 56.398438 -34.339844 C 56.9375 -35.148438 57.292969 -35.953125 57.652344 -36.761719 C 58.101562 -37.570312 58.550781 -38.375 58.910156 -39.273438 C 59.355469 -40.078125 59.625 -40.886719 60.253906 -41.691406 C 60.164062 -42.410156 61.238281 -42.589844 61.148438 -43.398438 C 61.6875 -43.933594 61.777344 -44.652344 62.136719 -45.28125 C 62.496094 -45.816406 62.585938 -46.445312 62.941406 -46.804688 C 63.480469 -47.34375 63.660156 -47.96875 64.019531 -48.507812 C 64.378906 -49.136719 64.648438 -49.671875 64.824219 -50.300781 C 65.003906 -50.75 65.453125 -50.839844 65.632812 -51.285156 C 65.722656 -51.734375 66.082031 -52.09375 66.351562 -52.453125 C 66.621094 -52.8125 66.796875 -53.257812 66.976562 -53.617188 C 67.066406 -53.796875 67.15625 -54.066406 67.246094 -54.15625 C 67.785156 -54.515625 67.785156 -55.230469 68.234375 -55.679688 C 68.144531 -56.398438 69.21875 -56.488281 69.128906 -57.203125 C 69.9375 -58.460938 70.386719 -59.894531 71.191406 -61.058594 C 71.191406 -61.6875 71.191406 -62.316406 71.191406 -62.765625 C 70.652344 -63.480469 69.757812 -63.480469 69.398438 -64.199219 Z M 22.148438 -13.089844 C 21.519531 -12.464844 21.25 -11.566406 20.621094 -10.9375 C 19.726562 -10.132812 18.828125 -9.144531 17.933594 -8.339844 C 17.933594 -8.160156 17.933594 -7.980469 17.933594 -8.070312 C 17.214844 -7.351562 16.585938 -6.726562 15.960938 -6.097656 C 15.691406 -6.457031 15.960938 -6.992188 15.871094 -7.441406 C 15.691406 -7.53125 15.601562 -7.710938 15.421875 -7.890625 C 15.421875 -8.160156 15.421875 -8.429688 15.421875 -8.695312 C 15.242188 -8.875 15.152344 -9.054688 14.972656 -9.144531 C 14.972656 -9.414062 14.972656 -9.683594 14.972656 -9.863281 C 14.523438 -10.582031 14.078125 -11.207031 13.628906 -11.746094 C 13.179688 -12.285156 12.820312 -12.910156 12.015625 -12.820312 C 12.015625 -13.089844 12.015625 -13.269531 12.015625 -13.359375 C 12.105469 -13.449219 12.195312 -13.539062 12.195312 -13.539062 C 13 -13.539062 13.898438 -13.539062 14.703125 -13.539062 C 14.882812 -13.71875 15.0625 -13.808594 15.242188 -13.988281 C 15.421875 -13.988281 15.691406 -13.988281 16.050781 -13.988281 C 16.140625 -13.898438 16.320312 -13.71875 16.496094 -13.539062 C 18.378906 -13.539062 20.265625 -13.539062 22.058594 -13.539062 C 22.148438 -13.359375 22.234375 -13.089844 22.148438 -13.089844 Z M 22.148438 -13.089844 "/></g></g></g><g fill="#514343" fill-opacity="1"><g transform="translate(149.99953, 197.387154)"><g><path d="M 40.976562 -41.78125 C 40.617188 -42.140625 40.347656 -42.589844 40.078125 -42.859375 C 39.71875 -42.679688 39.363281 -42.5 39.09375 -42.410156 C 38.554688 -41.871094 38.015625 -41.335938 37.480469 -40.796875 C 36.851562 -40.167969 36.222656 -39.542969 35.6875 -39.003906 C 35.148438 -38.464844 34.609375 -37.835938 33.980469 -37.300781 C 33.445312 -36.761719 32.816406 -36.132812 32.1875 -35.507812 C 31.652344 -34.96875 31.113281 -34.429688 30.574219 -33.890625 C 29.949219 -33.355469 29.410156 -32.726562 28.78125 -32.097656 C 28.242188 -31.5625 27.707031 -31.023438 27.167969 -30.484375 C 26.539062 -29.859375 25.914062 -29.320312 25.375 -28.691406 C 24.835938 -28.152344 24.296875 -27.617188 23.761719 -27.078125 C 23.132812 -26.449219 22.59375 -25.824219 21.878906 -25.285156 C 21.25 -24.746094 21.160156 -24.03125 20.621094 -23.492188 C 19.367188 -22.324219 18.203125 -21.070312 17.035156 -19.90625 C 17.035156 -19.816406 17.035156 -19.636719 17.035156 -19.457031 C 16.496094 -19.007812 16.050781 -18.46875 15.511719 -18.023438 C 14.972656 -17.484375 14.523438 -16.945312 13.988281 -16.496094 C 13.449219 -16.050781 13.269531 -15.421875 12.820312 -14.882812 C 11.65625 -13.71875 10.492188 -12.640625 9.414062 -11.476562 C 9.414062 -11.296875 9.414062 -11.207031 9.414062 -11.117188 C 8.695312 -10.402344 8.070312 -9.773438 7.441406 -9.144531 C 7.261719 -9.144531 7.082031 -9.234375 6.8125 -9.324219 C 6.992188 -9.503906 7.082031 -9.59375 7.261719 -9.773438 C 7.261719 -10.222656 7.261719 -10.582031 7.261719 -11.027344 C 7.441406 -11.207031 7.53125 -11.296875 7.710938 -11.476562 C 7.710938 -11.925781 7.710938 -12.285156 7.710938 -12.730469 C 7.890625 -12.910156 7.980469 -13 8.160156 -13.179688 C 8.160156 -13.628906 8.160156 -14.078125 8.160156 -14.4375 C 8.875 -14.792969 8.25 -15.691406 8.875 -16.050781 C 8.964844 -16.496094 8.964844 -16.945312 8.964844 -17.394531 C 9.144531 -17.574219 9.324219 -17.753906 9.414062 -17.84375 C 9.414062 -18.292969 9.414062 -18.648438 9.414062 -19.007812 C 9.503906 -19.1875 9.683594 -19.367188 9.773438 -19.457031 C 9.773438 -19.90625 9.773438 -20.351562 9.773438 -20.710938 C 9.953125 -20.890625 10.042969 -21.070312 10.222656 -21.160156 C 10.222656 -21.609375 10.222656 -22.058594 10.222656 -22.414062 C 10.402344 -22.59375 10.492188 -22.773438 10.667969 -22.953125 C 10.667969 -23.222656 10.667969 -23.492188 10.667969 -23.671875 C 10.847656 -23.851562 10.9375 -24.03125 11.117188 -24.207031 C 11.117188 -24.746094 11.117188 -25.285156 11.117188 -25.824219 C 11.296875 -26.003906 11.386719 -26.179688 11.476562 -26.269531 C 11.476562 -27.4375 11.476562 -28.601562 11.476562 -29.5 C 11.207031 -29.859375 11.117188 -30.125 10.847656 -30.664062 C 10.582031 -30.933594 10.132812 -31.382812 9.59375 -31.917969 C 9.59375 -31.917969 9.503906 -31.917969 9.414062 -31.917969 C 9.054688 -31.742188 8.695312 -31.5625 8.160156 -31.292969 C 7.800781 -31.023438 7.351562 -30.484375 6.8125 -30.035156 C 6.1875 -29.5 6.007812 -28.601562 5.378906 -28.0625 C 5.199219 -27.976562 5.199219 -27.527344 5.019531 -27.4375 C 4.664062 -27.167969 4.753906 -26.628906 4.484375 -26.359375 C 4.125 -26.003906 3.945312 -25.554688 3.945312 -25.105469 C 3.855469 -24.65625 3.585938 -24.386719 3.496094 -24.03125 C 3.316406 -23.492188 2.78125 -23.132812 3.046875 -22.503906 C 2.691406 -22.148438 2.511719 -21.699219 2.601562 -21.25 C 2.152344 -20.980469 2.332031 -20.351562 1.882812 -19.996094 C 1.792969 -19.996094 1.792969 -19.816406 1.792969 -19.636719 C 1.882812 -19.1875 1.523438 -18.917969 1.34375 -18.558594 C 1.253906 -18.203125 1.433594 -17.753906 0.984375 -17.484375 C 1.074219 -16.585938 0.179688 -15.871094 0.539062 -14.972656 C 0.359375 -14.792969 0.269531 -14.613281 0.0898438 -14.4375 C 0.0898438 -14.078125 0.0898438 -13.808594 0 -13.539062 C -0.0898438 -13.359375 -0.269531 -13.269531 -0.359375 -13.179688 C -0.359375 -12.730469 -0.359375 -12.285156 -0.359375 -11.925781 C -0.449219 -11.746094 -0.628906 -11.566406 -0.808594 -11.476562 C -0.808594 -11.027344 -0.808594 -10.582031 -0.808594 -10.222656 C -0.898438 -10.042969 -1.074219 -9.863281 -1.164062 -9.683594 C -1.164062 -9.324219 -1.164062 -8.875 -1.164062 -8.519531 C -1.34375 -8.339844 -1.433594 -8.25 -1.523438 -8.160156 C -1.523438 -6.457031 -1.523438 -4.664062 -1.523438 -2.957031 C -0.628906 -2.0625 0.269531 -1.164062 1.164062 -0.269531 C 1.523438 -0.269531 1.972656 -0.269531 2.421875 -0.269531 C 2.511719 -0.449219 2.691406 -0.539062 2.871094 -0.71875 C 3.316406 -0.71875 3.675781 -0.71875 4.125 -0.71875 C 4.304688 -0.898438 4.394531 -0.984375 4.574219 -1.164062 C 4.753906 -1.164062 5.019531 -1.164062 5.378906 -1.164062 C 5.648438 -1.433594 5.917969 -1.792969 6.1875 -1.882812 C 6.992188 -2.0625 7.351562 -2.78125 7.890625 -3.226562 C 8.25 -4.304688 9.144531 -4.839844 9.863281 -5.648438 C 9.953125 -5.738281 10.132812 -5.828125 10.132812 -5.917969 C 10.222656 -6.636719 10.847656 -6.902344 11.207031 -7.351562 C 11.566406 -7.890625 11.746094 -8.429688 12.285156 -8.875 C 12.730469 -9.234375 13.179688 -9.683594 13.269531 -10.3125 C 13.988281 -10.757812 13.988281 -11.65625 14.613281 -12.105469 C 15.332031 -12.554688 15.421875 -13.539062 16.140625 -13.988281 C 16.410156 -14.167969 16.496094 -14.523438 16.585938 -14.882812 C 16.855469 -15.332031 17.394531 -15.601562 17.484375 -16.140625 C 17.574219 -16.585938 18.113281 -16.765625 18.292969 -17.304688 C 18.46875 -17.753906 19.007812 -18.203125 19.457031 -18.558594 C 19.90625 -18.917969 19.90625 -19.457031 20.265625 -19.816406 C 20.710938 -20.175781 20.980469 -20.53125 21.339844 -20.890625 C 21.699219 -21.25 21.609375 -21.789062 22.058594 -22.058594 C 22.503906 -22.234375 22.414062 -22.773438 22.683594 -23.042969 C 23.3125 -23.761719 23.941406 -24.296875 24.386719 -25.105469 C 24.746094 -25.734375 25.375 -26.269531 26.003906 -26.808594 C 26.628906 -27.257812 26.71875 -28.0625 27.347656 -28.601562 C 27.886719 -28.960938 28.332031 -29.5 28.78125 -30.035156 C 28.78125 -30.214844 28.78125 -30.304688 28.78125 -30.484375 C 29.679688 -31.292969 30.484375 -32.1875 31.382812 -32.996094 C 31.382812 -33.175781 31.382812 -33.265625 31.382812 -33.445312 C 33.355469 -35.417969 35.417969 -37.480469 37.480469 -39.542969 C 37.660156 -39.542969 37.746094 -39.542969 37.925781 -39.542969 C 38.195312 -40.078125 38.824219 -40.347656 39.363281 -40.527344 C 39.628906 -40.707031 39.898438 -40.707031 40.078125 -40.886719 C 40.347656 -41.066406 40.617188 -41.335938 40.796875 -41.601562 C 40.886719 -41.691406 40.976562 -41.78125 40.976562 -41.78125 Z M 40.976562 -41.78125 "/></g></g></g><g fill="#514343" fill-opacity="1"><g transform="translate(180.573644, 197.387154)"><g><path d="M 69.398438 -64.199219 C 69.21875 -64.109375 69.039062 -63.929688 68.859375 -63.839844 C 68.59375 -63.839844 68.324219 -63.839844 68.054688 -63.839844 C 67.246094 -62.765625 66.082031 -62.136719 65.453125 -60.878906 C 65.183594 -60.253906 64.648438 -59.894531 64.289062 -59.265625 C 63.929688 -58.640625 63.210938 -58.191406 62.941406 -57.472656 C 62.765625 -57.023438 62.046875 -56.847656 61.867188 -56.21875 C 61.6875 -55.589844 61.148438 -55.230469 60.703125 -54.875 C 60.253906 -54.425781 60.253906 -53.886719 59.894531 -53.527344 C 59.445312 -53.167969 59.175781 -52.8125 58.820312 -52.453125 C 58.371094 -52.09375 58.011719 -51.644531 57.652344 -51.285156 C 57.292969 -50.929688 57.113281 -50.480469 56.847656 -50.121094 C 56.308594 -49.492188 55.589844 -48.957031 55.054688 -48.328125 C 54.515625 -47.609375 53.617188 -47.253906 53.4375 -46.265625 C 52.8125 -45.636719 52.183594 -45.011719 51.644531 -44.472656 C 51.019531 -43.84375 50.300781 -43.128906 49.671875 -42.5 C 49.226562 -42.050781 48.777344 -41.691406 48.417969 -41.335938 C 48.328125 -40.976562 48.328125 -40.886719 48.328125 -40.707031 C 47.878906 -40.257812 47.429688 -39.808594 46.984375 -39.363281 C 46.535156 -38.914062 45.996094 -38.375 45.546875 -37.925781 C 45.101562 -37.480469 44.652344 -36.941406 44.113281 -36.582031 C 43.574219 -36.132812 43.398438 -35.417969 42.949219 -34.96875 C 42.410156 -34.339844 41.78125 -33.804688 41.15625 -33.175781 C 40.617188 -32.546875 39.988281 -32.007812 39.363281 -31.382812 C 38.824219 -30.753906 38.015625 -30.304688 37.660156 -29.589844 C 37.210938 -28.871094 36.671875 -28.242188 36.132812 -27.707031 C 34.878906 -26.449219 33.625 -25.195312 32.367188 -23.941406 C 32.367188 -23.851562 32.367188 -23.671875 32.277344 -23.402344 C 32.007812 -23.042969 31.5625 -22.683594 31.203125 -22.324219 C 30.753906 -21.96875 30.394531 -21.519531 29.949219 -21.160156 C 29.5 -20.710938 29.050781 -20.265625 28.601562 -19.816406 C 28.242188 -19.367188 27.886719 -18.917969 27.4375 -18.648438 C 26.898438 -18.292969 26.988281 -17.664062 26.539062 -17.304688 C 26.179688 -17.035156 25.734375 -16.765625 25.285156 -16.496094 C 21.519531 -16.496094 17.753906 -16.496094 13.988281 -16.496094 C 13.808594 -16.410156 13.628906 -16.230469 13.449219 -16.140625 C 12.195312 -16.140625 10.9375 -16.140625 9.683594 -16.140625 C 9.59375 -15.960938 9.414062 -15.78125 9.234375 -15.691406 C 8.695312 -15.691406 8.160156 -15.691406 7.53125 -15.691406 C 7.351562 -15.0625 6.8125 -15.332031 6.457031 -15.242188 C 6.007812 -15.0625 5.648438 -14.792969 5.289062 -14.613281 C 6.007812 -14.347656 5.46875 -13.539062 5.917969 -13.179688 C 6.636719 -13.179688 7.351562 -13.179688 7.980469 -13.179688 C 8.429688 -12.554688 9.59375 -12.820312 9.503906 -11.65625 C 10.132812 -11.296875 10.3125 -10.492188 10.757812 -9.953125 C 10.757812 -8.785156 10.757812 -7.621094 10.757812 -6.546875 C 10.582031 -6.457031 10.492188 -6.367188 10.3125 -6.1875 C 10.3125 -5.738281 10.3125 -5.289062 10.3125 -4.929688 C 10.132812 -4.664062 10.042969 -4.574219 9.953125 -4.394531 C 9.953125 -4.035156 9.953125 -3.675781 9.953125 -3.226562 C 9.773438 -3.136719 9.683594 -2.957031 9.503906 -2.78125 C 9.503906 -2.511719 9.59375 -2.152344 9.503906 -1.972656 C 9.144531 -1.703125 9.144531 -1.253906 8.964844 -0.984375 C 8.695312 -0.539062 8.429688 -0.179688 8.25 0.269531 C 8.160156 0.628906 8.160156 0.984375 7.890625 1.34375 C 7.53125 1.972656 7.261719 2.601562 6.992188 3.316406 C 6.636719 3.945312 6.457031 4.664062 5.828125 5.109375 C 5.738281 5.199219 5.738281 5.199219 5.648438 5.378906 C 5.648438 5.558594 5.648438 5.828125 5.648438 6.097656 C 5.378906 6.367188 5.109375 6.636719 4.839844 6.902344 C 4.839844 7.171875 4.839844 7.441406 4.839844 7.710938 C 4.753906 7.890625 4.574219 7.980469 4.484375 8.160156 C 4.484375 8.609375 4.484375 8.964844 4.484375 9.503906 C 5.109375 9.953125 5.738281 10.402344 6.457031 10.9375 C 6.726562 10.9375 7.171875 10.9375 7.621094 10.9375 C 7.800781 10.757812 7.890625 10.582031 8.070312 10.492188 C 8.339844 10.492188 8.609375 10.492188 8.875 10.492188 C 9.324219 10.042969 9.59375 9.683594 10.222656 9.503906 C 10.757812 9.414062 10.667969 8.609375 11.117188 8.25 C 11.925781 7.621094 12.195312 6.726562 12.640625 5.917969 C 12.820312 5.46875 13 4.929688 13.359375 4.484375 C 13.628906 4.035156 13.628906 3.496094 13.808594 3.046875 C 14.078125 2.601562 14.257812 2.0625 14.523438 1.613281 C 14.613281 1.523438 14.613281 1.253906 14.613281 0.984375 C 14.703125 0.898438 14.882812 0.71875 14.972656 0.539062 C 14.972656 0.269531 14.972656 0 14.972656 -0.269531 C 15.332031 -0.539062 15.691406 -0.808594 15.78125 -1.164062 C 15.871094 -1.613281 16.050781 -1.882812 16.320312 -2.0625 C 16.675781 -2.242188 16.585938 -2.691406 16.765625 -2.871094 C 17.125 -3.316406 17.574219 -3.585938 17.84375 -3.945312 C 18.023438 -4.484375 18.292969 -4.929688 18.738281 -5.289062 C 19.1875 -5.558594 19.097656 -6.097656 19.457031 -6.457031 C 19.816406 -6.8125 20.351562 -7.082031 20.441406 -7.53125 C 20.53125 -7.980469 20.890625 -8.25 21.160156 -8.519531 C 21.519531 -8.875 21.609375 -9.234375 21.878906 -9.683594 C 22.324219 -10.222656 22.863281 -10.667969 23.402344 -11.207031 C 23.492188 -12.015625 24.207031 -12.375 24.746094 -12.910156 C 24.835938 -13 24.925781 -13.089844 25.015625 -13.089844 C 25.464844 -13.089844 25.824219 -13.089844 26.179688 -13.089844 C 26.449219 -12.910156 26.628906 -12.820312 26.71875 -12.730469 C 27.527344 -12.730469 28.332031 -12.730469 29.140625 -12.730469 C 29.230469 -12.640625 29.410156 -12.464844 29.589844 -12.285156 C 29.949219 -12.285156 30.394531 -12.285156 30.84375 -12.285156 C 31.023438 -11.925781 31.472656 -11.925781 31.832031 -11.746094 C 31.832031 -11.566406 31.832031 -11.476562 31.917969 -11.296875 C 32.007812 -11.117188 32.097656 -10.9375 32.277344 -10.847656 C 33.085938 -10.492188 33.804688 -10.042969 34.609375 -9.683594 C 34.878906 -10.042969 35.148438 -10.402344 35.417969 -10.582031 C 35.773438 -10.582031 36.042969 -10.582031 36.3125 -10.582031 C 36.671875 -10.9375 37.03125 -11.296875 37.390625 -11.65625 C 37.390625 -12.375 37.390625 -13.089844 37.390625 -13.808594 C 37.03125 -14.078125 36.492188 -14.078125 36.222656 -14.523438 C 35.953125 -14.972656 35.328125 -14.792969 35.058594 -15.242188 C 34.339844 -15.242188 33.625 -15.242188 32.996094 -15.242188 C 32.816406 -15.421875 32.636719 -15.511719 32.457031 -15.691406 C 31.832031 -15.691406 31.113281 -15.691406 30.394531 -15.691406 C 30.304688 -15.78125 30.214844 -15.960938 30.035156 -16.050781 C 29.320312 -16.050781 28.601562 -16.140625 27.796875 -16.140625 C 27.796875 -16.140625 27.707031 -16.230469 27.707031 -16.320312 C 27.617188 -17.035156 28.242188 -17.214844 28.601562 -17.664062 C 28.960938 -18.113281 29.5 -18.558594 29.949219 -19.007812 C 30.304688 -19.367188 30.664062 -19.726562 31.023438 -20.085938 C 31.113281 -20.351562 31.113281 -20.441406 31.113281 -20.621094 C 32.367188 -21.878906 33.625 -23.042969 34.878906 -24.296875 C 34.878906 -24.476562 34.878906 -24.566406 34.878906 -24.746094 C 35.507812 -25.464844 36.222656 -26.089844 36.941406 -26.808594 C 37.121094 -27.976562 38.195312 -28.421875 38.914062 -29.140625 C 39.542969 -29.949219 40.257812 -30.574219 40.976562 -31.292969 C 41.515625 -31.742188 41.960938 -32.277344 42.5 -32.726562 C 42.5 -32.90625 42.5 -33.085938 42.5 -33.175781 C 46.625 -37.300781 50.75 -41.425781 54.875 -45.546875 C 54.875 -45.636719 54.964844 -45.546875 55.054688 -45.546875 C 55.054688 -45.457031 55.140625 -45.28125 55.140625 -45.191406 C 54.964844 -44.742188 54.785156 -44.382812 54.515625 -44.023438 C 54.246094 -43.574219 53.796875 -43.308594 53.796875 -42.769531 C 53.347656 -42.589844 53.617188 -42.050781 53.167969 -41.78125 C 52.722656 -41.515625 52.632812 -41.066406 52.453125 -40.617188 C 50.929688 -37.660156 49.492188 -34.699219 47.96875 -31.742188 C 47.789062 -31.292969 47.609375 -30.933594 47.34375 -30.484375 C 47.164062 -30.035156 46.894531 -29.679688 46.714844 -29.320312 C 46.535156 -28.871094 46.445312 -28.332031 46.175781 -28.0625 C 45.816406 -27.707031 45.90625 -27.078125 45.457031 -26.898438 C 45.636719 -26.269531 44.921875 -26.089844 44.921875 -25.554688 C 44.921875 -25.195312 44.472656 -24.835938 44.203125 -24.386719 C 44.023438 -24.03125 44.292969 -23.402344 43.753906 -23.132812 C 43.753906 -22.59375 43.398438 -22.148438 43.128906 -21.699219 C 42.949219 -21.160156 42.769531 -20.710938 42.5 -20.265625 C 42.140625 -19.816406 41.960938 -19.367188 41.960938 -18.828125 C 41.601562 -18.558594 41.691406 -18.023438 41.425781 -17.753906 C 41.066406 -17.484375 41.066406 -17.035156 40.796875 -16.675781 C 40.617188 -16.410156 40.886719 -15.78125 40.347656 -15.421875 C 40.527344 -14.972656 39.988281 -14.792969 39.898438 -14.347656 C 39.808594 -13.898438 39.453125 -13.539062 39.453125 -13.089844 C 39.453125 -12.640625 39.09375 -12.285156 38.824219 -11.835938 C 38.644531 -11.476562 38.464844 -11.027344 38.285156 -10.667969 C 38.105469 -10.3125 37.835938 -10.042969 37.835938 -9.773438 C 37.925781 -9.144531 37.300781 -8.875 37.390625 -8.429688 C 37.570312 -7.890625 37.03125 -7.621094 36.941406 -7.171875 C 36.851562 -6.726562 36.582031 -6.277344 36.3125 -5.917969 C 35.953125 -5.558594 36.402344 -4.753906 35.6875 -4.484375 C 35.773438 -4.035156 35.773438 -3.496094 35.328125 -3.226562 C 35.417969 -2.601562 34.519531 -2.332031 34.878906 -1.703125 C 34.609375 -1.253906 34.519531 -0.808594 34.160156 -0.449219 C 33.804688 -0.0898438 34.25 0.628906 33.625 0.984375 C 33.535156 0.984375 33.625 1.253906 33.625 1.34375 C 33.625 1.523438 33.625 1.613281 33.625 1.792969 C 33.445312 1.972656 33.355469 2.0625 33.175781 2.242188 C 33.175781 2.691406 33.175781 3.136719 33.175781 3.496094 C 32.996094 3.675781 32.90625 3.855469 32.726562 3.945312 C 32.726562 4.214844 32.726562 4.574219 32.726562 4.753906 C 32.546875 4.929688 32.457031 5.109375 32.277344 5.289062 C 32.277344 5.648438 32.277344 6.097656 32.277344 6.367188 C 32.007812 6.992188 31.742188 7.441406 31.472656 7.980469 C 31.472656 8.25 31.472656 8.695312 31.472656 9.054688 C 31.292969 9.234375 31.203125 9.324219 31.023438 9.503906 C 31.023438 10.042969 31.023438 10.667969 31.023438 11.207031 C 30.84375 11.296875 30.753906 11.476562 30.664062 11.566406 C 30.664062 11.835938 30.664062 12.105469 30.664062 12.375 C 30.484375 12.554688 30.304688 12.640625 30.214844 12.820312 C 30.214844 13.359375 30.214844 13.988281 30.214844 14.523438 C 30.125 14.613281 29.949219 14.703125 29.859375 14.882812 C 29.859375 15.691406 29.859375 16.585938 29.859375 17.394531 C 30.214844 17.84375 30.574219 18.203125 30.84375 18.558594 C 32.097656 18.378906 33.085938 17.933594 33.625 16.765625 C 33.804688 16.410156 34.070312 16.140625 34.429688 15.691406 C 34.429688 15.511719 34.339844 15.152344 34.429688 14.972656 C 34.878906 14.613281 34.789062 13.898438 35.328125 13.628906 C 35.238281 13.089844 35.417969 12.730469 35.6875 12.285156 C 35.863281 11.835938 36.222656 11.386719 36.3125 10.9375 C 36.582031 10.3125 37.121094 9.773438 36.941406 9.054688 C 37.390625 8.695312 37.480469 8.25 37.390625 7.800781 C 37.835938 7.53125 37.746094 6.902344 38.105469 6.546875 C 38.195312 6.457031 38.195312 6.1875 38.285156 6.007812 C 38.375 5.378906 38.824219 4.929688 38.734375 4.304688 C 39.183594 3.945312 39.453125 3.40625 39.453125 2.957031 C 39.542969 2.421875 39.808594 2.0625 39.988281 1.613281 C 40.167969 1.164062 40.527344 0.71875 40.347656 0.0898438 C 40.796875 -0.0898438 40.707031 -0.628906 40.976562 -0.898438 C 41.246094 -1.164062 41.246094 -1.613281 41.515625 -1.972656 C 41.871094 -2.152344 41.515625 -2.691406 41.871094 -3.046875 C 42.140625 -3.40625 42.230469 -3.855469 42.5 -4.304688 C 42.679688 -4.753906 43.039062 -5.199219 42.949219 -5.828125 C 43.308594 -6.007812 43.308594 -6.457031 43.484375 -6.8125 C 43.753906 -7.171875 44.023438 -7.621094 44.113281 -7.980469 C 44.203125 -8.429688 44.113281 -8.875 44.5625 -9.144531 C 44.382812 -9.59375 44.921875 -9.773438 45.011719 -10.222656 C 45.101562 -10.582031 45.28125 -11.117188 45.636719 -11.386719 C 45.996094 -11.746094 45.726562 -12.195312 45.90625 -12.554688 C 46.085938 -13 46.535156 -13.359375 46.625 -13.71875 C 46.714844 -14.257812 47.164062 -14.613281 47.253906 -15.152344 C 47.789062 -15.421875 47.429688 -16.050781 47.699219 -16.496094 C 48.417969 -17.664062 48.867188 -18.917969 49.671875 -20.085938 C 49.582031 -20.710938 50.390625 -21.160156 50.03125 -21.878906 C 50.300781 -22.148438 50.660156 -22.414062 50.929688 -22.59375 C 51.019531 -23.042969 50.929688 -23.402344 51.109375 -23.671875 C 51.824219 -24.925781 52.363281 -26.269531 53.082031 -27.527344 C 53.707031 -28.78125 54.335938 -30.125 54.964844 -31.382812 C 55.054688 -31.472656 55.140625 -31.652344 55.140625 -31.742188 C 55.140625 -32.457031 55.589844 -32.996094 55.949219 -33.535156 C 56.128906 -33.804688 56.488281 -33.980469 56.398438 -34.339844 C 56.9375 -35.148438 57.292969 -35.953125 57.652344 -36.761719 C 58.101562 -37.570312 58.550781 -38.375 58.910156 -39.273438 C 59.355469 -40.078125 59.625 -40.886719 60.253906 -41.691406 C 60.164062 -42.410156 61.238281 -42.589844 61.148438 -43.398438 C 61.6875 -43.933594 61.777344 -44.652344 62.136719 -45.28125 C 62.496094 -45.816406 62.585938 -46.445312 62.941406 -46.804688 C 63.480469 -47.34375 63.660156 -47.96875 64.019531 -48.507812 C 64.378906 -49.136719 64.648438 -49.671875 64.824219 -50.300781 C 65.003906 -50.75 65.453125 -50.839844 65.632812 -51.285156 C 65.722656 -51.734375 66.082031 -52.09375 66.351562 -52.453125 C 66.621094 -52.8125 66.796875 -53.257812 66.976562 -53.617188 C 67.066406 -53.796875 67.15625 -54.066406 67.246094 -54.15625 C 67.785156 -54.515625 67.785156 -55.230469 68.234375 -55.679688 C 68.144531 -56.398438 69.21875 -56.488281 69.128906 -57.203125 C 69.9375 -58.460938 70.386719 -59.894531 71.191406 -61.058594 C 71.191406 -61.6875 71.191406 -62.316406 71.191406 -62.765625 C 70.652344 -63.480469 69.757812 -63.480469 69.398438 -64.199219 Z M 22.148438 -13.089844 C 21.519531 -12.464844 21.25 -11.566406 20.621094 -10.9375 C 19.726562 -10.132812 18.828125 -9.144531 17.933594 -8.339844 C 17.933594 -8.160156 17.933594 -7.980469 17.933594 -8.070312 C 17.214844 -7.351562 16.585938 -6.726562 15.960938 -6.097656 C 15.691406 -6.457031 15.960938 -6.992188 15.871094 -7.441406 C 15.691406 -7.53125 15.601562 -7.710938 15.421875 -7.890625 C 15.421875 -8.160156 15.421875 -8.429688 15.421875 -8.695312 C 15.242188 -8.875 15.152344 -9.054688 14.972656 -9.144531 C 14.972656 -9.414062 14.972656 -9.683594 14.972656 -9.863281 C 14.523438 -10.582031 14.078125 -11.207031 13.628906 -11.746094 C 13.179688 -12.285156 12.820312 -12.910156 12.015625 -12.820312 C 12.015625 -13.089844 12.015625 -13.269531 12.015625 -13.359375 C 12.105469 -13.449219 12.195312 -13.539062 12.195312 -13.539062 C 13 -13.539062 13.898438 -13.539062 14.703125 -13.539062 C 14.882812 -13.71875 15.0625 -13.808594 15.242188 -13.988281 C 15.421875 -13.988281 15.691406 -13.988281 16.050781 -13.988281 C 16.140625 -13.898438 16.320312 -13.71875 16.496094 -13.539062 C 18.378906 -13.539062 20.265625 -13.539062 22.058594 -13.539062 C 22.148438 -13.359375 22.234375 -13.089844 22.148438 -13.089844 Z M 22.148438 -13.089844 "/></g></g></g><g fill="#000000" fill-opacity="1"><g transform="translate(122.391408, 127.664677)"><g><path d="M 3.140625 -4.203125 L 0.25 -2.21875 L 0.578125 -0.40625 L 0.015625 -0.015625 L -1.1875 -6.8125 L -0.640625 -7.1875 L 5.296875 -3.640625 L 4.703125 -3.25 Z M 2.625 -4.5 L -0.515625 -6.4375 L 0.140625 -2.796875 Z M 2.625 -4.5 "/></g></g></g><g fill="#000000" fill-opacity="1"><g transform="translate(132.436992, 121.252403)"><g><path d="M 3.234375 -1.484375 C 2.492188 -1.128906 1.816406 -1.066406 1.203125 -1.296875 C 0.597656 -1.523438 0.101562 -2.039062 -0.28125 -2.84375 L -1.8125 -6.09375 L -1.203125 -6.375 L 0.328125 -3.15625 C 0.640625 -2.488281 1.019531 -2.0625 1.46875 -1.875 C 1.914062 -1.695312 2.421875 -1.742188 2.984375 -2.015625 C 3.546875 -2.273438 3.898438 -2.632812 4.046875 -3.09375 C 4.191406 -3.5625 4.109375 -4.128906 3.796875 -4.796875 L 2.265625 -8.015625 L 2.859375 -8.296875 L 4.390625 -5.046875 C 4.773438 -4.242188 4.863281 -3.535156 4.65625 -2.921875 C 4.445312 -2.304688 3.972656 -1.828125 3.234375 -1.484375 Z M 3.234375 -1.484375 "/></g></g></g><g fill="#000000" fill-opacity="1"><g transform="translate(144.0318, 116.311551)"><g><path d="M 0.53125 -6.125 L -1.59375 -5.5 L -1.765625 -6.03125 L 3.109375 -7.484375 L 3.28125 -6.953125 L 1.15625 -6.3125 L 2.78125 -0.828125 L 2.15625 -0.640625 Z M 0.53125 -6.125 "/></g></g></g><g fill="#000000" fill-opacity="1"><g transform="translate(154.327633, 113.598032)"><g><path d="M 3.734375 -0.453125 C 3.117188 -0.367188 2.539062 -0.429688 2 -0.640625 C 1.46875 -0.847656 1.03125 -1.171875 0.6875 -1.609375 C 0.34375 -2.054688 0.128906 -2.578125 0.046875 -3.171875 C -0.0351562 -3.773438 0.03125 -4.332031 0.25 -4.84375 C 0.46875 -5.363281 0.804688 -5.796875 1.265625 -6.140625 C 1.734375 -6.484375 2.273438 -6.695312 2.890625 -6.78125 C 3.503906 -6.863281 4.078125 -6.800781 4.609375 -6.59375 C 5.140625 -6.394531 5.582031 -6.070312 5.9375 -5.625 C 6.289062 -5.175781 6.507812 -4.648438 6.59375 -4.046875 C 6.675781 -3.453125 6.601562 -2.894531 6.375 -2.375 C 6.144531 -1.851562 5.800781 -1.421875 5.34375 -1.078125 C 4.882812 -0.742188 4.347656 -0.535156 3.734375 -0.453125 Z M 3.65625 -1.03125 C 4.144531 -1.101562 4.578125 -1.273438 4.953125 -1.546875 C 5.328125 -1.828125 5.597656 -2.179688 5.765625 -2.609375 C 5.929688 -3.035156 5.984375 -3.488281 5.921875 -3.96875 C 5.859375 -4.457031 5.6875 -4.882812 5.40625 -5.25 C 5.132812 -5.613281 4.78125 -5.878906 4.34375 -6.046875 C 3.914062 -6.222656 3.457031 -6.273438 2.96875 -6.203125 C 2.476562 -6.140625 2.046875 -5.96875 1.671875 -5.6875 C 1.304688 -5.40625 1.035156 -5.050781 0.859375 -4.625 C 0.679688 -4.207031 0.625 -3.753906 0.6875 -3.265625 C 0.75 -2.785156 0.921875 -2.359375 1.203125 -1.984375 C 1.492188 -1.617188 1.851562 -1.351562 2.28125 -1.1875 C 2.707031 -1.019531 3.164062 -0.96875 3.65625 -1.03125 Z M 3.65625 -1.03125 "/></g></g></g><g fill="#000000" fill-opacity="1"><g transform="translate(167.32682, 112.412333)"><g/></g></g><g fill="#000000" fill-opacity="1"><g transform="translate(175.218274, 112.670568)"><g><path d="M 3.71875 0.546875 C 3.101562 0.460938 2.566406 0.253906 2.109375 -0.078125 C 1.648438 -0.421875 1.3125 -0.851562 1.09375 -1.375 C 0.875 -1.894531 0.804688 -2.453125 0.890625 -3.046875 C 0.972656 -3.648438 1.1875 -4.175781 1.53125 -4.625 C 1.875 -5.070312 2.3125 -5.394531 2.84375 -5.59375 C 3.375 -5.800781 3.953125 -5.863281 4.578125 -5.78125 C 5.035156 -5.71875 5.453125 -5.582031 5.828125 -5.375 C 6.203125 -5.164062 6.503906 -4.894531 6.734375 -4.5625 L 6.265625 -4.203125 C 5.835938 -4.765625 5.253906 -5.097656 4.515625 -5.203125 C 4.015625 -5.265625 3.546875 -5.207031 3.109375 -5.03125 C 2.679688 -4.851562 2.328125 -4.582031 2.046875 -4.21875 C 1.765625 -3.863281 1.59375 -3.441406 1.53125 -2.953125 C 1.46875 -2.472656 1.519531 -2.019531 1.6875 -1.59375 C 1.863281 -1.164062 2.140625 -0.8125 2.515625 -0.53125 C 2.890625 -0.257812 3.328125 -0.09375 3.828125 -0.03125 C 4.578125 0.0703125 5.222656 -0.09375 5.765625 -0.53125 L 6.125 -0.046875 C 5.820312 0.210938 5.457031 0.390625 5.03125 0.484375 C 4.613281 0.585938 4.175781 0.609375 3.71875 0.546875 Z M 3.71875 0.546875 "/></g></g></g><g fill="#000000" fill-opacity="1"><g transform="translate(186.996484, 114.723449)"><g><path d="M 2.75 -5.75 L 3.390625 -5.5625 L 1.78125 -0.09375 L 5.15625 0.890625 L 5 1.453125 L 0.984375 0.28125 Z M 2.75 -5.75 "/></g></g></g><g fill="#000000" fill-opacity="1"><g transform="translate(197.245181, 118.081198)"><g><path d="M 3.21875 1.5625 C 2.46875 1.207031 1.984375 0.722656 1.765625 0.109375 C 1.546875 -0.503906 1.628906 -1.21875 2.015625 -2.03125 L 3.53125 -5.28125 L 4.140625 -4.984375 L 2.640625 -1.765625 C 2.328125 -1.085938 2.238281 -0.519531 2.375 -0.0625 C 2.519531 0.394531 2.878906 0.757812 3.453125 1.03125 C 4.015625 1.289062 4.519531 1.328125 4.96875 1.140625 C 5.425781 0.960938 5.8125 0.535156 6.125 -0.140625 L 7.625 -3.359375 L 8.21875 -3.078125 L 6.703125 0.171875 C 6.316406 0.984375 5.820312 1.503906 5.21875 1.734375 C 4.613281 1.960938 3.945312 1.90625 3.21875 1.5625 Z M 3.21875 1.5625 "/></g></g></g><g fill="#000000" fill-opacity="1"><g transform="translate(208.44222, 123.827454)"><g><path d="M 5.953125 0.125 C 6.234375 0.445312 6.394531 0.78125 6.4375 1.125 C 6.476562 1.46875 6.378906 1.8125 6.140625 2.15625 C 5.835938 2.601562 5.4375 2.832031 4.9375 2.84375 C 4.4375 2.863281 3.867188 2.65625 3.234375 2.21875 L 0.84375 0.578125 L 4.390625 -4.609375 L 6.625 -3.078125 C 7.195312 -2.679688 7.566406 -2.253906 7.734375 -1.796875 C 7.898438 -1.347656 7.835938 -0.914062 7.546875 -0.5 C 7.347656 -0.207031 7.109375 -0.0078125 6.828125 0.09375 C 6.554688 0.195312 6.265625 0.207031 5.953125 0.125 Z M 4.625 -3.78125 L 3.34375 -1.890625 L 5 -0.765625 C 5.414062 -0.472656 5.789062 -0.332031 6.125 -0.34375 C 6.46875 -0.351562 6.742188 -0.507812 6.953125 -0.8125 C 7.171875 -1.113281 7.21875 -1.421875 7.09375 -1.734375 C 6.96875 -2.054688 6.695312 -2.363281 6.28125 -2.65625 Z M 3.53125 1.75 C 4 2.070312 4.40625 2.234375 4.75 2.234375 C 5.09375 2.242188 5.378906 2.078125 5.609375 1.734375 C 6.046875 1.097656 5.796875 0.457031 4.859375 -0.1875 L 3.03125 -1.4375 L 1.703125 0.5 Z M 3.53125 1.75 "/></g></g></g><g fill="#000000" fill-opacity="1"><g transform="translate(101.300755, 231.073866)"><g><path d="M 3.671875 4.09375 L 3.203125 4.4375 L 0.609375 0.84375 L 5.703125 -2.828125 L 8.21875 0.65625 L 7.765625 0.984375 L 5.625 -1.96875 L 3.8125 -0.671875 L 5.71875 1.953125 L 5.25 2.296875 L 3.34375 -0.328125 L 1.453125 1.03125 Z M 3.671875 4.09375 "/></g></g></g><g fill="#000000" fill-opacity="1"><g transform="translate(108.776157, 240.635652)"><g><path d="M 3.484375 3.546875 L 4.03125 0.15625 L 0.640625 0.65625 L 0.109375 0.109375 L 4.09375 -0.453125 L 4.703125 -4.171875 L 5.234375 -3.625 L 4.734375 -0.484375 L 7.875 -0.9375 L 8.375 -0.421875 L 4.671875 0.109375 L 4.015625 4.09375 Z M 3.484375 3.546875 "/></g></g></g><g fill="#000000" fill-opacity="1"><g transform="translate(117.50977, 248.92954)"><g><path d="M 3 2.265625 C 2.507812 1.898438 2.140625 1.457031 1.890625 0.9375 C 1.648438 0.414062 1.554688 -0.117188 1.609375 -0.671875 C 1.671875 -1.234375 1.878906 -1.757812 2.234375 -2.25 C 2.597656 -2.738281 3.035156 -3.09375 3.546875 -3.3125 C 4.066406 -3.53125 4.613281 -3.601562 5.1875 -3.53125 C 5.769531 -3.457031 6.304688 -3.238281 6.796875 -2.875 C 7.296875 -2.5 7.664062 -2.050781 7.90625 -1.53125 C 8.144531 -1.019531 8.238281 -0.484375 8.1875 0.078125 C 8.132812 0.648438 7.925781 1.179688 7.5625 1.671875 C 7.207031 2.160156 6.765625 2.515625 6.234375 2.734375 C 5.710938 2.953125 5.164062 3.019531 4.59375 2.9375 C 4.03125 2.863281 3.5 2.640625 3 2.265625 Z M 3.34375 1.8125 C 3.75 2.101562 4.179688 2.273438 4.640625 2.328125 C 5.097656 2.378906 5.535156 2.3125 5.953125 2.125 C 6.367188 1.945312 6.722656 1.660156 7.015625 1.265625 C 7.304688 0.867188 7.476562 0.441406 7.53125 -0.015625 C 7.59375 -0.472656 7.523438 -0.910156 7.328125 -1.328125 C 7.140625 -1.742188 6.84375 -2.097656 6.4375 -2.390625 C 6.039062 -2.679688 5.613281 -2.859375 5.15625 -2.921875 C 4.695312 -2.984375 4.253906 -2.921875 3.828125 -2.734375 C 3.410156 -2.546875 3.054688 -2.253906 2.765625 -1.859375 C 2.472656 -1.460938 2.300781 -1.035156 2.25 -0.578125 C 2.195312 -0.128906 2.265625 0.304688 2.453125 0.734375 C 2.648438 1.160156 2.945312 1.519531 3.34375 1.8125 Z M 3.34375 1.8125 "/></g></g></g><g fill="#000000" fill-opacity="1"><g transform="translate(128.844002, 256.574831)"><g><path d="M 4.640625 -4.046875 L 2.671875 -5.0625 L 2.921875 -5.5625 L 7.4375 -3.21875 L 7.1875 -2.71875 L 5.21875 -3.734375 L 2.578125 1.34375 L 2 1.03125 Z M 4.640625 -4.046875 "/></g></g></g><g fill="#000000" fill-opacity="1"><g transform="translate(139.00587, 261.346771)"><g><path d="M 3.15625 -5.53125 L 3.765625 -5.296875 L 1.578125 0.59375 L 0.96875 0.359375 Z M 3.15625 -5.53125 "/></g></g></g><g fill="#000000" fill-opacity="1"><g transform="translate(147.35828, 264.141256)"><g><path d="M 3.640625 0.875 C 3.046875 0.738281 2.535156 0.484375 2.109375 0.109375 C 1.679688 -0.265625 1.378906 -0.71875 1.203125 -1.25 C 1.023438 -1.789062 1.003906 -2.359375 1.140625 -2.953125 C 1.273438 -3.546875 1.535156 -4.046875 1.921875 -4.453125 C 2.316406 -4.867188 2.785156 -5.15625 3.328125 -5.3125 C 3.878906 -5.476562 4.457031 -5.492188 5.0625 -5.359375 C 5.519531 -5.253906 5.925781 -5.082031 6.28125 -4.84375 C 6.632812 -4.601562 6.90625 -4.304688 7.09375 -3.953125 L 6.59375 -3.640625 C 6.226562 -4.234375 5.679688 -4.613281 4.953125 -4.78125 C 4.460938 -4.882812 3.992188 -4.867188 3.546875 -4.734375 C 3.097656 -4.597656 2.71875 -4.363281 2.40625 -4.03125 C 2.101562 -3.695312 1.894531 -3.289062 1.78125 -2.8125 C 1.675781 -2.332031 1.691406 -1.875 1.828125 -1.4375 C 1.960938 -1 2.203125 -0.625 2.546875 -0.3125 C 2.890625 0 3.304688 0.207031 3.796875 0.3125 C 4.535156 0.476562 5.195312 0.363281 5.78125 -0.03125 L 6.09375 0.46875 C 5.769531 0.71875 5.394531 0.875 4.96875 0.9375 C 4.539062 1 4.097656 0.976562 3.640625 0.875 Z M 3.640625 0.875 "/></g></g></g><g fill="#000000" fill-opacity="1"><g transform="translate(159.69634, 266.380559)"><g/></g></g><g fill="#000000" fill-opacity="1"><g transform="translate(168.12541, 266.887867)"><g><path d="M 5.3125 -0.203125 L 3.796875 -2.171875 C 3.640625 -2.148438 3.472656 -2.140625 3.296875 -2.140625 L 1.609375 -2.0625 L 1.6875 -0.0625 L 1.03125 -0.046875 L 0.78125 -6.328125 L 3.125 -6.421875 C 3.925781 -6.453125 4.5625 -6.285156 5.03125 -5.921875 C 5.507812 -5.554688 5.765625 -5.035156 5.796875 -4.359375 C 5.804688 -3.867188 5.691406 -3.445312 5.453125 -3.09375 C 5.222656 -2.75 4.882812 -2.492188 4.4375 -2.328125 L 6.046875 -0.234375 Z M 3.25 -2.703125 C 3.875 -2.722656 4.34375 -2.875 4.65625 -3.15625 C 4.976562 -3.445312 5.132812 -3.835938 5.125 -4.328125 C 5.101562 -4.835938 4.921875 -5.222656 4.578125 -5.484375 C 4.234375 -5.753906 3.75 -5.878906 3.125 -5.859375 L 1.453125 -5.78125 L 1.578125 -2.625 Z M 3.25 -2.703125 "/></g></g></g><g fill="#000000" fill-opacity="1"><g transform="translate(180.716232, 265.895485)"><g><path d="M 5.25 -1.609375 L 5.359375 -1.046875 L 1.015625 -0.203125 L -0.1875 -6.359375 L 4.046875 -7.1875 L 4.140625 -6.640625 L 0.546875 -5.9375 L 0.984375 -3.75 L 4.171875 -4.375 L 4.28125 -3.8125 L 1.09375 -3.1875 L 1.546875 -0.890625 Z M 5.25 -1.609375 "/></g></g></g><g fill="#000000" fill-opacity="1"><g transform="translate(192.555441, 263.123634)"><g><path d="M 3.71875 -8.0625 L 5.890625 -2.171875 L 5.375 -1.984375 L -0.1875 -5.375 L 1.578125 -0.578125 L 0.96875 -0.359375 L -1.203125 -6.25 L -0.6875 -6.4375 L 4.875 -3.0625 L 3.109375 -7.84375 Z M 3.71875 -8.0625 "/></g></g></g><g fill="#000000" fill-opacity="1"><g transform="translate(204.957153, 257.9565)"><g><path d="M -0.8125 -6.09375 L -2.75 -5.015625 L -3.015625 -5.5 L 1.4375 -7.96875 L 1.703125 -7.484375 L -0.234375 -6.40625 L 2.546875 -1.40625 L 1.96875 -1.09375 Z M -0.8125 -6.09375 "/></g></g></g><g fill="#000000" fill-opacity="1"><g transform="translate(214.613558, 252.123099)"><g><path d="M 2.90625 -4.375 L 0.125 -2.234375 L 0.5625 -0.421875 L 0.015625 -0.015625 L -1.53125 -6.75 L -1.015625 -7.140625 L 5.09375 -3.921875 L 4.53125 -3.484375 Z M 2.375 -4.640625 L -0.859375 -6.40625 L -0.015625 -2.796875 Z M 2.375 -4.640625 "/></g></g></g><g fill="#000000" fill-opacity="1"><g transform="translate(224.258728, 244.071923)"><g><path d="M -3.8125 -5.109375 L -3.359375 -5.578125 L 0.75 -1.625 L 3.1875 -4.15625 L 3.609375 -3.75 L 0.71875 -0.75 Z M -3.8125 -5.109375 "/></g></g></g><g fill="#000000" fill-opacity="1"><g transform="translate(231.845949, 235.558148)"><g><path d="M 1.640625 -2.21875 C 1.367188 -1.832031 1.050781 -1.507812 0.6875 -1.25 C 0.320312 -0.988281 -0.03125 -0.835938 -0.375 -0.796875 L -0.640625 -1.3125 C -0.328125 -1.363281 -0.00390625 -1.5 0.328125 -1.71875 C 0.660156 -1.9375 0.945312 -2.210938 1.1875 -2.546875 C 1.519531 -3.003906 1.679688 -3.40625 1.671875 -3.75 C 1.671875 -4.101562 1.535156 -4.378906 1.265625 -4.578125 C 1.066406 -4.722656 0.859375 -4.769531 0.640625 -4.71875 C 0.429688 -4.675781 0.226562 -4.585938 0.03125 -4.453125 C -0.15625 -4.328125 -0.40625 -4.132812 -0.71875 -3.875 C -1.09375 -3.550781 -1.40625 -3.304688 -1.65625 -3.140625 C -1.90625 -2.984375 -2.179688 -2.890625 -2.484375 -2.859375 C -2.785156 -2.828125 -3.097656 -2.925781 -3.421875 -3.15625 C -3.671875 -3.34375 -3.851562 -3.578125 -3.96875 -3.859375 C -4.09375 -4.148438 -4.113281 -4.484375 -4.03125 -4.859375 C -3.957031 -5.242188 -3.769531 -5.640625 -3.46875 -6.046875 C -3.257812 -6.347656 -3.007812 -6.609375 -2.71875 -6.828125 C -2.4375 -7.046875 -2.15625 -7.207031 -1.875 -7.3125 L -1.578125 -6.828125 C -1.878906 -6.703125 -2.148438 -6.546875 -2.390625 -6.359375 C -2.640625 -6.171875 -2.847656 -5.957031 -3.015625 -5.71875 C -3.335938 -5.269531 -3.488281 -4.867188 -3.46875 -4.515625 C -3.457031 -4.171875 -3.316406 -3.898438 -3.046875 -3.703125 C -2.847656 -3.554688 -2.640625 -3.5 -2.421875 -3.53125 C -2.203125 -3.570312 -1.992188 -3.660156 -1.796875 -3.796875 C -1.597656 -3.941406 -1.34375 -4.140625 -1.03125 -4.390625 C -0.6875 -4.703125 -0.382812 -4.941406 -0.125 -5.109375 C 0.132812 -5.273438 0.414062 -5.375 0.71875 -5.40625 C 1.019531 -5.4375 1.328125 -5.34375 1.640625 -5.125 C 1.890625 -4.9375 2.066406 -4.695312 2.171875 -4.40625 C 2.285156 -4.113281 2.300781 -3.78125 2.21875 -3.40625 C 2.132812 -3.03125 1.941406 -2.632812 1.640625 -2.21875 Z M 1.640625 -2.21875 "/></g></g></g><g clip-path="url(#772f1e7574)"><path fill="#514343" d="M 289.085938 179.34375 C 288.613281 179.140625 288.058594 179.121094 288.117188 179.769531 C 288.222656 180.96875 287.5 182.347656 286.839844 183.324219 C 286.140625 184.378906 285.191406 185.230469 284.101562 185.902344 C 280.96875 187.789062 277.402344 188.804688 273.734375 188.90625 C 271.878906 188.945312 270.066406 188.761719 268.230469 188.539062 C 264.441406 188.050781 260.484375 187.484375 256.671875 188.03125 C 255.992188 188.132812 255.308594 188.296875 254.652344 188.558594 C 254.363281 188.683594 254.15625 188.601562 253.929688 188.417969 C 252.382812 187.179688 250.570312 186.511719 248.613281 186.183594 C 246.429688 185.800781 244.242188 186.003906 242.058594 186.265625 C 239.730469 186.53125 237.464844 187.078125 235.257812 187.851562 C 232.105469 188.945312 229.035156 190.265625 225.984375 191.605469 C 224.316406 192.335938 222.625 193.046875 220.851562 193.453125 C 219.222656 193.816406 217.265625 194.0625 215.679688 193.433594 C 214.691406 193.046875 213.886719 192.335938 213.496094 191.363281 C 213.0625 190.265625 212.9375 189.066406 213.082031 187.929688 C 213.164062 187.421875 213.269531 186.875 213.496094 186.410156 C 213.679688 186.023438 214.050781 185.515625 213.597656 185.171875 C 212.671875 184.441406 211.351562 185.476562 211 186.328125 C 209.910156 189.027344 210.960938 192.050781 213.332031 193.695312 C 215.535156 195.238281 218.585938 195.605469 221.203125 195.117188 C 223.347656 194.730469 225.34375 193.917969 227.304688 192.984375 C 230.105469 191.664062 232.929688 190.425781 235.8125 189.289062 C 239.257812 187.929688 243.007812 187.140625 246.714844 187.058594 C 247.953125 187.039062 249.230469 187.140625 250.425781 187.484375 C 251.496094 187.808594 252.570312 188.195312 253.371094 189.046875 C 253.332031 189.007812 252.773438 189.453125 252.714844 189.492188 C 251.929688 190.144531 251.621094 191.097656 251.703125 192.070312 C 251.746094 192.597656 251.867188 193.105469 252.300781 193.472656 C 253.828125 194.75 255.351562 192.273438 255.351562 190.957031 C 255.351562 190.40625 255.105469 189.941406 254.898438 189.453125 C 254.855469 189.332031 255.785156 189.109375 255.867188 189.089844 C 256.464844 188.925781 257.019531 188.824219 257.617188 188.785156 C 260.113281 188.601562 262.605469 188.804688 265.078125 189.066406 C 267.015625 189.289062 268.910156 189.695312 270.847656 189.898438 C 274.578125 190.304688 278.207031 190.164062 281.730469 188.761719 C 283.132812 188.214844 284.472656 187.566406 285.75 186.792969 C 286.839844 186.144531 287.808594 185.273438 288.550781 184.257812 C 289.148438 183.464844 289.707031 182.550781 289.933594 181.578125 C 290.160156 180.746094 289.953125 179.730469 289.085938 179.34375 Z M 253.722656 192.171875 C 253.558594 192.4375 253.289062 192.902344 252.941406 192.964844 C 252.671875 193.003906 252.609375 192.578125 252.570312 192.398438 C 252.527344 192.113281 252.570312 191.828125 252.609375 191.542969 C 252.691406 191.097656 252.941406 190.691406 253.25 190.367188 C 253.3125 190.304688 253.886719 189.820312 253.910156 189.859375 C 254.136719 190.164062 254.238281 190.609375 254.199219 190.996094 C 254.175781 191.402344 253.949219 191.808594 253.722656 192.171875 Z M 253.722656 192.171875 " fill-opacity="1" fill-rule="nonzero"/></g></svg>